<svg xmlns="http://www.w3.org/2000/svg" xmlns:xlink="http://www.w3.org/1999/xlink" width="1440" height="476" viewBox="0 0 1440 476">
    <defs>
        <linearGradient id="b" x1="97.508%" x2="5.894%" y1="91.945%" y2="21.433%">
            <stop offset="0%" stop-color="#117AF4"/>
            <stop offset="100%" stop-color="#0326B6"/>
        </linearGradient>
        <path id="a" d="M0 363.54c214.721 174.97 479.814-72.128 720-72.128 240.186 0 467.252 223.696 720 177.324V0H0v363.54z"/>
        <linearGradient id="d" x1="12.033%" x2="92.042%" y1="6.25%" y2="95.646%">
            <stop offset="0%" stop-color="#1462BE"/>
            <stop offset="100%" stop-color="#02308B"/>
        </linearGradient>
        <linearGradient id="e" x1="0%" y1="0%" y2="100%">
            <stop offset="0%" stop-color="#12B0EB"/>
            <stop offset="100%" stop-color="#047CDB"/>
        </linearGradient>
        <path id="f" d="M0 .458h57.601v179.357H0z"/>
        <path id="h" d="M0 .554h113.334v165.664H0z"/>
    </defs>
    <g fill="none" fill-rule="evenodd">
        <path fill="#9CBDFD" d="M0 0h1440v460.959c-135.314 62.55-290.233-143.297-449.593-143.297-178.788 0-229.85 181.276-620.85 46.343C223.54 313.615 100.353 345.932 0 460.959V0z"/>
        <mask id="c" fill="#fff">
            <use xlink:href="#a"/>
        </mask>
        <use fill="url(#b)" xlink:href="#a"/>
        <g mask="url(#c)">
            <path fill="#0A4DD3" d="M1175.228 401.524c-.92-3.989-6.128-9.332-4.671-21.713 1.471-12.38.144-12.913-2.524-12.524-3.314.499-5.076 8.136-2.666 22.389 2.391 14.251 10.798 15.85 9.86 11.848zm147.364-90.283c-.26-6.812-4.995-16.996-10.8-14.157-5.173 2.519 6.484 11.655 1.276 17.936-5.19 6.263-5.19 10.573 0 10.91 5.208.339 9.8-7.876 9.524-14.69zm-551.93 101.468c236.397-43.325 236.397-89.894 295.987-39.451 22.57 19.113 39.434 28.91 52.351 29.895 5.705 7.619 15.23 9.717 15.81 9.83-.564-.404-7.775-5.601-9.215-10.17 16.847-3.163 25.996-24.89 32.932-63.55 10.882-60.677 33.337-91.232 61.888-81.129-5.32 10.234-3.265 31.041-3.265 31.041s5.431-22.05 12.934-26.198a59.051 59.051 0 0 1 3.814 2.663c34.922 26.248 58.85 34.076 65.123-23.89 6.27-57.947 30.198-71.668 55.695-61.871 9.246 3.55 17.04 4.472 23.409 2.082 13.905 11.09 16.265 33.236 16.265 33.236s-1.018-30.363-8.974-38.03c6.92-7.02 11.317-20.467 13.226-41.937 3.927-44.243 27.838-59.127 42.358-52.864V475H770.662v-62.291z"/>
            <path stroke="#276EC4" d="M463.563 384C459.939 421.17 475 476 475 476M498 353c-11.25 58.556 0 123 0 123M522.271 356c-8.91 39.19-10.218 102.697 8.729 120M1094 394c2.521 40.618 38 81 38 81M1111 475c-39.254-29.152-48-105-48-105M1179.9 279c-10.937 89.288 28.669 188.658 34.1 197M1207.503 257c-16.258 56.182.62 184.313 21.497 219M1245 274c-25.655 69.464-35.751 141.467-4.867 202M1310 197c52.113 176.106 6.58 279 6.58 279M1333 178c30.166 128.8 10.297 262.632 0 298M1373.115 185C1390.48 358.53 1344 476 1344 476M1400 123.31c16.368 188.376 26.406 351.69 26.406 351.69H1434s-1.01-275.142-17-387"/>
        </g>
        <g mask="url(#c)">
            <path fill="#0A4DD3" d="M188.898 295.117c-1.376.482-2.249.95-2.863 4.568-2.231 13.138-11.396 25.244-14.486 28.699-3.104 3.47-.259 5.941 3.46 4.456 3.72-1.486 17.591-23.26 17.719-30.687.13-7.41-2.472-7.538-3.83-7.036zm50.892 80.645c-2.425 0-4.412 1.678-4.412 3.76 0 2.083 1.987 3.762 4.412 3.762 2.442 0 4.416-1.68 4.416-3.761 0-2.083-1.974-3.761-4.416-3.761zm72.219 59.949c-1.827-9.88 6.741-22.26 2.91-23.955-5.384-2.356-10.234 15.9-10.556 25.15-.323 9.232 9.7 23.308 14.421 18.804 4.736-4.52-4.948-10.104-6.775-20zm-15.923-41.257c47.094 20.401 27.42-57.725 92.944-38.805 65.524 18.902 0 119.351 0 119.351H0V112.938c25.576-8.135 38.204 8.33 46.919 51.993 8.728 43.68 39.963-1.259 64.328 16.239 24.38 17.5 6.322 82.178 46.61 100.08 31.815 14.141 45.961-22.662 71.28-27.006.824 13.642-1.715 30.298-1.715 30.298s6.322-14.77 9.848-30.522c4.591.515 9.585 2.147 15.066 5.26 27.468 15.577 17.818 59.402 20.63 93.768-7.098.598-16.459 8.814-17.023 9.332.533-.244 9.327-4.15 17.493-4.649 2.003 16.447 7.58 30.201 22.65 36.723z"/>
            <path stroke="#276EC4" d="M102.406 177C119.551 279.422 64 476 64 476h17.899S122.846 358.491 132 242.777M44 150.157C4.133 245.56 44 476 44 476H26.282s-47.884-223.034 0-360M66.556 185C76.245 308.927 54 476 54 476M214 262C208.585 374.542 81 476 81 476"/>
            <path stroke="#276EC4" d="M273 322.23C212.827 418.622 90 476 90 476c44.905-27.138 147.92-120.762 162.892-216"/>
            <path stroke="#589BEE" d="M330.563 384C326.939 421.17 342 476 342 476M365 353c-11.25 58.556 0 123 0 123"/>
            <path stroke="#4A2E80" d="M389.271 356c-8.91 39.19-10.218 102.697 8.729 120"/>
        </g>
        <g mask="url(#c)">
            <path fill="#0639C4" d="M30.997 155.403s16.954 61.677 10.248 108.65C34.542 311.045 2.523 373.507-2.157 330.83c-2.914-26.613 9.428-62.062 19.921-101.316 3.055 3.7 7.454 1.57 7.454 1.57s-4.294-1.239-6.32-5.832c5.868-22.42 10.948-46.012 12.099-69.849"/>
            <path stroke="#2A71C7" d="M31.767 165.548c6.945 84.226-13.589 119.217-26.36 177.345"/>
        </g>
        <g mask="url(#c)">
            <path fill="#0D2CAC" d="M39.288 309.346c-1.032-9.698 3.959-13.346 3.406-19.057-.55-5.714-4.989-6.023-5.866.876-.876 6.9-3.647 15.382-2.023 21.956 1.216 4.92 5.514 5.938 4.483-3.775m45.977 8.582c1.456 73.164-82.1 105.766-80.897 39.36 1.2-66.42 62.545-94.427 46.132-131.907 0 0 10.476 6.094 19.933 24.346v.014c1.004 6.305-3.689 18.266-2.572 25.915 0 0 3.406-16.301 6.163-18.224 5.895 14.066 10.716 33.662 11.241 60.496"/>
            <path stroke="#2A71C7" d="M50.492 225.389c23.534 35.742 3.936 145.253-14.225 167.292"/>
        </g>
        <g mask="url(#c)">
            <path fill="#347EF2" d="M-10.138 388.319c-18.21-15.491-5.48-56.892 7.94-76.31 15.513-22.452 18.212-38.416 18.212-38.416s6.544 19.334 9.513 44.07c2.968 24.738-2.25 55.463-13.92 68.723-8.8 10-17.476 5.565-21.745 1.933"/>
            <path stroke="#2A71C7" d="M-4.761 391.422c25.087-52.905 20.997-115.114 20.997-115.114M6.602 297.648c3.244 2.776 9.085 9.963 9.085 9.963s7.468-5.353 7.348-5.988"/>
            <path stroke="#2A71C7" d="M-3.677 314.242c4.911 4.698 16.362 18.89 16.362 18.89s11.103-7.064 13.359-9.987M-13.303 334.212c5.623 5.498 20.733 23.54 20.733 23.54s14.15-7.71 18.01-10.432M18.6 374.78c-4.858 2.98-18.854 6.289-18.854 6.289s-13.819-18-18.867-21.29"/>
        </g>
        <g mask="url(#c)">
            <path fill="#347EF2" d="M78.555 349.956c-.361-.322-5.967-5.54-6.008-8.015 27.47-27.069 55.475-43.607 55.475-43.607-2.97 72.777-45.279 112.756-74.475 120.155-29.195 7.413-20.592-28.714-4.014-50.55 6.463-8.524 13.528-16.445 20.673-23.67 2.368 3.358 8.001 5.553 8.35 5.687"/>
            <path stroke="#1957A3" d="M37.892 416.423c42.176-30.364 88.58-115.409 88.58-115.409M108.271 319.67c.811 3.877 1.93 8.837 1.93 8.837s7.72-.991 9.794-1.442"/>
            <path stroke="#1957A3" d="M90.096 339.12c.732 3.34 3.614 14.493 3.614 14.493s11.421-.19 15.807-1.754M68.378 361.041c.626 7.519 3.555 21.639 3.555 21.639s14.507-.025 20.773-.547M49.69 379.527c-.627 7.621 2.314 24.971 2.314 24.971s14.287-.018 21.387-2.838"/>
        </g>
        <g stroke="#2781F0" stroke-linecap="round" stroke-linejoin="round" stroke-width="2" mask="url(#c)">
            <path d="M1248.318 273.348l-8.288-68.383-8.288 68.383zM1248.318 514.203h-16.576V273.348h16.576z"/>
            <path d="M1248.318 503.344l-16.576-16.48 16.576-17.671-16.576-18.267 16.576-15.686-16.576-16.082 16.576-15.487-16.576-13.898 16.576-14.892-16.576-14.097 16.576-14.891-16.576-13.104 16.576-14.693-16.576-13.501 16.576-14.693-16.576-16.553M1030.513 259.226l-18.616 14.122h328.045v-14.122zM1246.173 256.134l-11.263-8.533 9.405-6.946-7.769-6.677 6.033-7.776-4.577-4.351"/>
            <path d="M1339.942 273.348l-13.611-14.122-13.94 14.122-14.517-14.122-13.551 14.122-13.745-14.122-14.325 14.122-13.745-14.122-14.52 14.122-13.743-14.122-15.293 14.122-13.94-14.122-14.712 14.122-13.937-14.122-13.94 14.122-13.55-14.122-12.97 14.122-14.325-14.122-13.744 14.122-13.746-14.122-13.163 14.122-13.745-14.122-14.905 14.122M1326.33 259.226l-86.3-54.26-83.668 54.26M1101.577 259.226l138.452-54.26M1019.267 273.26c18.739 18.136 58.293 41.765 97.013.088"/>
            <path d="M1151.282 403.573h-75.935l40.844-130.225z"/>
        </g>
        <g stroke="#1C57D8" stroke-linecap="round" stroke-linejoin="round" stroke-width="2" mask="url(#c)">
            <path d="M294.682 207.348l8.288-68.383 8.288 68.383zM294.682 448.203h16.576V207.348h-16.576z"/>
            <path d="M294.682 437.344l16.576-16.48-16.576-17.671 16.576-18.267-16.576-15.686 16.576-16.082-16.576-15.487 16.576-13.898-16.576-14.892 16.576-14.097-16.576-14.891 16.576-13.104-16.576-14.693 16.576-13.501-16.576-14.693 16.576-16.553M512.487 193.226l18.616 14.122H203.058v-14.122zM296.827 190.133l11.263-8.533-9.405-6.945 7.769-6.677-6.033-7.776 4.577-4.351"/>
            <path d="M203.058 207.348l13.611-14.122 13.94 14.122 14.517-14.122 13.551 14.122 13.745-14.122 14.325 14.122 13.745-14.122 14.52 14.122 13.743-14.122 15.293 14.122 13.94-14.122 14.712 14.122 13.937-14.122 13.94 14.122 13.55-14.122 12.97 14.122 14.325-14.122 13.744 14.122 13.746-14.122 13.163 14.122 13.745-14.122 14.905 14.122M216.67 193.226l86.3-54.26 83.668 54.26M441.423 193.226l-138.452-54.26M523.733 207.26c-18.739 18.136-58.293 41.765-97.013.088"/>
            <path d="M391.718 279h75.935l-40.844-71.652z"/>
        </g>
        <g mask="url(#c)">
            <path fill="#0A4DD3" d="M362 367.075h128.258V276H362z"/>
            <path fill="url(#d)" d="M15.575 68.137h83.031L57.09 1.027l-41.515 67.11" transform="translate(365 295)"/>
            <path fill="url(#e)" d="M70.002 68.137h51.834L95.919 26.244 70.002 68.137" transform="translate(365 295)"/>
            <path fill="#62A5F7" d="M457.545 304.527a9.528 9.528 0 1 1-19.055 0 9.528 9.528 0 0 1 19.055 0"/>
            <path fill="url(#d)" d="M11.916 67.877H0a5.958 5.958 0 0 1 11.916 0" transform="translate(365 295)"/>
            <path fill="url(#d)" d="M16.98 67.877H8.471a4.254 4.254 0 1 1 8.51 0" transform="translate(365 295)"/>
            <path fill="url(#d)" d="M4.417 17.22h-.874a2.72 2.72 0 0 1-2.72-2.72V2.744a2.72 2.72 0 0 1 2.72-2.72h.874a2.72 2.72 0 0 1 2.72 2.72V14.5a2.72 2.72 0 0 1-2.72 2.72" transform="translate(378 341)"/>
            <path fill="#1957A3" d="M382.305 362.506v-4.285a.324.324 0 1 0-.65 0v4.285a.324.324 0 1 0 .65 0M385.954 362.506v-2.481a.325.325 0 0 0-.649 0v2.48a.324.324 0 1 0 .65 0"/>
            <path fill="url(#e)" d="M7.593 7.006A2.043 2.043 0 0 0 5.55 9.05v7.777a2.043 2.043 0 1 0 4.086 0V9.05a2.044 2.044 0 0 0-2.043-2.044" transform="translate(378 341)"/>
            <path fill="#62A5F7" d="M412.893 321.753h-22.986s-.15-1.525.962-2.172c.99-.576 1.87 0 1.87 0s.41-3.982 5.314-4.812c4.66-.79 6.412 2.82 6.412 2.82s1.317-.898 3.281-.288c2.033.63 2.35 2.326 2.35 2.326s.985-.471 2.075.365c.909.697.722 1.761.722 1.761"/>
            <path fill="#E6F4F8" d="M481.346 373.148v-1.128h1.129v-1.2h-2.329v2.328h1.2M483.916 372.02h1.129v1.128h1.2v-2.328h-2.329v1.2M485.045 374.583v1.127l-1.129.001v1.2h2.329v-2.328h-1.2M482.475 375.711h-1.129v-1.128h-1.2v2.327h2.329v-1.199"/>
            <path fill="#1957A3" d="M362.362 363.387h71.388v-1.2h-71.388z"/>
        </g>
        <path fill="#347EF2" d="M1142.06 182.342h88.55s.58-5.877-3.7-8.367c-3.81-2.22-7.21 0-7.21 0s-1.58-15.34-20.47-18.54c-17.95-3.041-24.7 10.867-24.7 10.867s-5.07-3.462-12.64-1.115c-7.83 2.43-9.05 8.962-9.05 8.962s-3.8-1.812-7.99 1.407c-3.51 2.684-2.79 6.786-2.79 6.786" mask="url(#c)"/>
        <g mask="url(#c)">
            <path fill="#0D2CAC" d="M1397.954 236.142c46.301 48.62 56.328 126.66 55.938 145.198-.819 37.753-36.977 32.267-45.145 18.578-10.673-17.907-14.493-60.139-15.08-93.557 4.047.566 12.306 4.307 12.306 4.307s-6.075-6.615-12.377-9.693a447.701 447.701 0 0 1-.011-7.108c.213-34.544 4.369-57.725 4.369-57.725"/>
            <path stroke="#2761A8" d="M1434.625 409.94c2.289-84.778-36.418-170.866-36.418-170.866M1401.333 274.79c4.565 1.593 12.436 6.43 12.436 6.43s3.112-7.691 3.74-9.017"/>
            <path stroke="#2761A8" d="M1425.728 291.913c-2.198 2.461-5.823 10.128-5.823 10.128s-11.154-4.74-16.192-6.114M1405.742 329.736c7.724 1.291 22.211 9.59 22.78 9.887.57.297 6.884-15.596 7.61-16.842M1409.76 365.053c11.422 2.362 23.662 10.47 23.662 10.47s9.896-15.257 10.976-16.525"/>
        </g>
        <g mask="url(#c)">
            <g transform="rotate(-4 5192.993 -19702.322)">
                <mask id="g" fill="#fff">
                    <use xlink:href="#f"/>
                </mask>
                <path fill="#347EF2" d="M16.035.458c-30.104 92.22-11.579 145.465 4.962 169.02 16.538 23.557 39.4 5.1 36.323-37.613C52.67 67.289 16.035.458 16.035.458" mask="url(#g)"/>
            </g>
            <path stroke="#1957A3" d="M1403.346 317.94c9.249 102.884 34.303 172.907 34.303 172.907"/>
        </g>
        <g mask="url(#c)">
            <g transform="translate(1298 315.179)">
                <mask id="i" fill="#fff">
                    <use xlink:href="#h"/>
                </mask>
                <path fill="#0D2CAC" d="M95.484 165.534c-21.494 6.22-85.577-31.598-84.957-48.326.62-16.728 19.207-9.5 19.207-9.5S-5.789 65.783.82 50.087c6.609-15.696 36.35 7.642 36.35 7.642s-22.1-44.817-7.644-55.143C43.983-7.741 60.92 24.27 63.397 32.118c2.48 7.85 5.163 21.273 5.163 21.273s3.511-26.23 17.969-25.404c14.455.827 30.566 70.22 26.023 105.744-4.545 35.523-17.068 31.803-17.068 31.803" mask="url(#i)"/>
            </g>
            <path stroke="#1957A3" stroke-width="2" d="M1327.526 317.764c42.688 72.873 61.8 163.594 61.8 163.594M1298.82 365.265c29.501 44.367 66.656 35.284 66.656 35.284s24.045-13.23 21.376-56.668"/>
            <path stroke="#1957A3" stroke-width="2" d="M1309.419 427.496c33.52 28.304 70.678 18.06 70.678 18.06s22.404-7.301 28.366-43.428"/>
        </g>
        <g mask="url(#c)">
            <path fill="#347EF2" d="M1264.093 336.461c52.554 32.855 80.314 100.637 84.467 117.387 8.44 34.118-24.721 37.65-35.233 27.26-13.74-13.592-27.348-50.65-35.972-80.542 3.7-.439 11.878.99 11.878.99s-6.953-4.523-13.247-5.814a425.849 425.849 0 0 1-1.734-6.385c-8.193-31.091-10.159-52.896-10.159-52.896"/>
            <path stroke="#1957A3" d="M1338.538 484.058c-18.552-76.72-73.51-145.02-73.51-145.02M1276.444 370.401c4.405.363 12.507 2.868 12.507 2.868s.874-7.64 1.104-8.979"/>
            <path stroke="#1957A3" d="M1302.073 380.078c-1.338 2.726-2.669 10.464-2.669 10.464s-10.969-1.648-15.737-1.704M1293.656 418.745c7.112-.648 21.878 3.419 22.452 3.553.573.133 2.275-15.626 2.612-16.916M1305.76 449.541c10.628-.55 23.37 3.87 23.37 3.87s5.01-16.026 5.653-17.418"/>
        </g>
    </g>
</svg>
